<?xml version="1.0" encoding="UTF-8"?>
<svg id="Layer_1" data-name="Layer 1" xmlns="http://www.w3.org/2000/svg" viewBox="0 0 428.9 470.02">
  <defs>
    <style>.cls-1 { fill: #585b62; }</style>
  </defs>
  <path class="cls-1" d="M160.91,116.13c.34-.09.58-.4.58-.75.07-8.92-.99-21.1,3.15-30,1.74-3.76,2.79-6.06,3.16-6.91,3.82-8.92,10.41-15.66,18.68-21.14,12.92-8.55,29.53-10.18,44.31-4.38,8.98,3.53,18.63,10.34,24.12,18.8,1.22,1.88,3.06,3.79,4.05,5.72,3.97,7.75,5.94,14.87,5.91,21.35-.02,5.39.04,10.88.15,16.47,0,.57.47,1.02,1.05,1.02,7.5-.02,21.07-.06,40.72-.1,4.24,0,6.51,2.13,6.8,6.41,2.36,34.38,7.11,96.95,14.25,187.71.09,1.11.85,8.94,2.28,23.49.51,5.14-.09,8.85-5.97,8.86-61.21.08-135.14.09-221.78.02-2.43,0-4.31-.93-5.65-2.8-.22-.32-.35-.69-.36-1.08-.05-3.21.11-6.69.48-10.45,5.83-60.59,10.08-124.44,14.37-179.57.74-9.5.65-18.61,1.77-26.17.83-5.58,3.66-6.32,9.18-6.35,11.02-.06,23.33-.06,36.92.02.71,0,1.33-.06,1.84-.19ZM173.45,116.21l79.38.14c.71,0,1.29-.58,1.29-1.29l.02-9.87c.04-24.63-18.16-44.64-40.67-44.68h-.48c-22.5-.04-40.77,19.9-40.82,44.53l-.02,9.87c0,.71.58,1.29,1.29,1.29ZM213.25,332.44h101.39c1.95,0,3.42-.11,4.41-.32.17-.04.28-.2.26-.38-1.1-10.58-3.51-38.92-7.22-85.02-4-49.52-7.09-83.58-9.12-118.73-.03-.61-.54-1.08-1.15-1.08h-36.08c-.4,0-.72.32-.72.72.05,5.94.1,12.61.15,20.02.02,2.37-.33,3.99-1.03,4.86-2.99,3.68-6.61,2.96-9.46-.7-.34-.44-.52-.98-.52-1.53v-22.49c0-.53-.43-.96-.96-.96,0,0,0,0-.01,0-4.66.04-17.97.06-39.94.06s-35.27-.02-39.94-.06c-.53,0-.96.43-.96.96v22.49c0,.55-.18,1.09-.52,1.53-2.85,3.66-6.47,4.38-9.46.7-.7-.87-1.05-2.49-1.03-4.86.06-7.41.11-14.08.15-20.02,0-.4-.32-.72-.72-.72h-36.08c-.61.01-1.12.49-1.15,1.09-2.03,35.15-5.12,69.21-9.11,118.73-3.71,46.1-6.12,74.44-7.22,85.02-.02.18.09.34.26.38.99.21,2.46.32,4.41.31,11.24,0,45.04,0,101.39,0Z"/>
</svg>