<svg width="54" height="54" viewBox="0 0 54 54" fill="none" xmlns="http://www.w3.org/2000/svg">
<g clip-path="url(#clip0_474_30)">
<path d="M15.2347 14.1204L12.4902 10.6475L13.3034 10.0065C13.6394 9.7411 13.9613 9.6084 14.2691 9.6084C14.574 9.6084 14.8422 9.7524 15.0653 10.0376C15.3618 10.4131 15.4069 10.7999 15.1952 11.198C15.4775 11.0343 15.7486 10.9722 16.0027 11.0145C16.2596 11.0569 16.4827 11.2009 16.6775 11.4465C16.8328 11.6442 16.9232 11.8475 16.9458 12.0564C16.9684 12.2682 16.9288 12.4743 16.8244 12.6804C16.7199 12.8865 16.5533 13.0785 16.3274 13.2564L15.2375 14.1176L15.2347 14.1204ZM14.1138 11.8249L14.4131 11.5877C14.6531 11.3985 14.7971 11.2009 14.8451 10.9976C14.8931 10.7943 14.8422 10.5966 14.6898 10.4075C14.5373 10.2155 14.3594 10.1223 14.1533 10.1223C13.9472 10.1223 13.7213 10.2183 13.4813 10.4103L13.182 10.6475L14.1138 11.8249ZM15.3928 13.4399L15.9265 13.0164C16.1806 12.8159 16.3331 12.6098 16.3839 12.398C16.4347 12.1863 16.3839 11.9802 16.2258 11.7825C16.0676 11.582 15.8785 11.4832 15.6526 11.4804C15.4295 11.4804 15.1924 11.5764 14.9411 11.774L14.4074 12.1976L15.39 13.4399H15.3928Z" fill="#585B61"/>
<path d="M26.9981 41.6216C18.9369 41.6216 12.375 35.0625 12.375 26.9985C12.375 18.9345 18.9341 12.3755 26.9981 12.3755C35.0621 12.3755 41.6211 18.9345 41.6211 26.9985C41.6211 35.0625 35.0621 41.6216 26.9981 41.6216ZM26.9981 13.1774C19.3774 13.1774 13.1769 19.3778 13.1769 26.9985C13.1769 34.6193 19.3774 40.8197 26.9981 40.8197C34.6188 40.8197 40.8192 34.6193 40.8192 26.9985C40.8192 19.3778 34.6188 13.1774 26.9981 13.1774Z" fill="#585B61"/>
<path d="M26.9986 54C12.1129 54 0 41.8871 0 26.9986C0 12.1101 12.1129 0 26.9986 0C41.8842 0 53.9972 12.1129 53.9972 26.9986C53.9972 41.8842 41.8842 53.9972 26.9986 53.9972V54ZM26.9986 0.801882C12.5534 0.799059 0.799059 12.5534 0.799059 26.9986C0.799059 41.4438 12.5506 53.1981 26.9986 53.1981C41.4466 53.1981 53.1981 41.4466 53.1981 26.9986C53.1981 12.5506 41.4466 0.799059 26.9986 0.799059V0.801882Z" fill="#585B61"/>
</g>
<defs>
<clipPath id="clip0_474_30">
<rect width="54" height="54" fill="white"/>
</clipPath>
</defs>
</svg>