<svg width="77" height="46" viewBox="0 0 77 46" fill="none" xmlns="http://www.w3.org/2000/svg">
<path d="M46.6277 36.7374H22.7406V36.3674C22.7406 31.8169 19.0472 28.1173 14.509 28.1173C9.97083 28.1173 6.27739 31.8169 6.27739 36.3674V36.7374H0.345703V0.351807H55.2354V28.1235H54.8655C50.3211 28.1235 46.6277 31.8169 46.6277 36.3612V36.7312V36.7374ZM23.4682 35.9974H45.8939C46.0851 31.3421 49.8402 27.587 54.4955 27.3959V1.09789H1.09179V35.9974H5.5498C5.74712 31.2126 9.68719 27.3774 14.5152 27.3774C19.3431 27.3774 23.2832 31.2126 23.4805 35.9974H23.4682Z" fill="#272525"/>
<path d="M46.9787 37.0823H22.3887V36.3609C22.3887 32.0077 18.8556 28.4622 14.5086 28.4622C10.1616 28.4622 6.62845 32.0077 6.62845 36.3609V37.0823H0V0H55.5926V28.4746H54.8712C50.518 28.4746 46.9787 32.0139 46.9787 36.3671V37.0885V37.0823ZM23.0917 36.3855H46.282V36.3671C46.282 31.6316 50.1357 27.7778 54.8712 27.7778H54.8897V0.702926H0.696758V36.3855H5.92552V36.3671C5.92552 31.6254 9.77311 27.7717 14.5024 27.7717C19.2317 27.7717 23.0793 31.6316 23.0793 36.3671V36.3855H23.0917ZM46.2326 36.3424H23.1348L23.1225 36.0094C22.9313 31.3664 19.1516 27.7285 14.5086 27.7285C9.8656 27.7285 6.08584 31.3664 5.89469 36.0094L5.88236 36.3424H0.73992V0.73992H54.8465V27.7285L54.5136 27.7408C50.0617 27.9196 46.43 31.5514 46.245 36.0094L46.2326 36.3424ZM23.8008 35.6456H45.5667C45.9182 31.0951 49.5993 27.414 54.1498 27.0626V1.44284H1.43668V35.6456H5.21643C5.58639 30.7868 9.60663 27.0256 14.5086 27.0256C19.4106 27.0256 23.4308 30.7868 23.8008 35.6456Z" fill="#585B61"/>
<path d="M17.1983 42.9175C20.8038 41.4241 22.516 37.2905 21.0225 33.685C19.5291 30.0795 15.3956 28.3674 11.7901 29.8608C8.18456 31.3543 6.4724 35.4878 7.96585 39.0933C9.4593 42.6988 13.5928 44.411 17.1983 42.9175Z" fill="#585B61"/>
<path d="M14.4958 43.8034C10.4078 43.8034 7.07812 40.4738 7.07812 36.3857C7.07812 32.2977 10.4078 28.968 14.4958 28.968C18.5839 28.968 21.9135 32.2977 21.9135 36.3857C21.9135 40.4738 18.5839 43.8034 14.4958 43.8034ZM14.4958 29.6709C10.7901 29.6709 7.78105 32.6861 7.78105 36.3857C7.78105 40.0853 10.7962 43.1005 14.4958 43.1005C18.1954 43.1005 21.2106 40.0853 21.2106 36.3857C21.2106 32.6861 18.1954 29.6709 14.4958 29.6709Z" fill="#585B61"/>
<path d="M61.9684 36.3917C61.9684 40.2947 58.8052 43.4579 54.9022 43.4579C50.9991 43.4579 47.8359 40.2947 47.8359 36.3917C47.8359 32.4886 50.9991 29.3254 54.9022 29.3254C58.8052 29.3254 61.9684 32.4886 61.9684 36.3917Z" fill="#585B61"/>
<path d="M54.9021 43.8034C50.814 43.8034 47.4844 40.4738 47.4844 36.3857C47.4844 32.2977 50.814 28.968 54.9021 28.968C58.9901 28.968 62.3198 32.2977 62.3198 36.3857C62.3198 40.4738 58.9901 43.8034 54.9021 43.8034ZM54.9021 29.6709C51.1963 29.6709 48.1873 32.6861 48.1873 36.3857C48.1873 40.0853 51.2025 43.1005 54.9021 43.1005C58.6017 43.1005 61.623 40.0853 61.623 36.3857C61.623 32.6861 58.6078 29.6709 54.9021 29.6709Z" fill="#585B61"/>
<path d="M76.3543 36.7373H63.0912V36.3673C63.0912 31.8353 59.4039 28.1481 54.8719 28.1481H54.502V11.321H66.7291L76.3543 23.9058V36.7373ZM63.8249 35.9974H75.6143V24.1525L66.3592 12.061H55.2419V27.4143C59.891 27.6054 63.6338 31.3482 63.8249 35.9974Z" fill="#272525"/>
<path d="M76.6994 37.0825H62.7396V36.3611C62.7396 32.0203 59.2065 28.4933 54.8718 28.4933H54.1504V10.9634H66.8955L76.6994 23.7763V37.0764V37.0825ZM63.4364 36.3858H75.9965V24.023L66.544 11.6725H54.841V27.8027H54.8595C59.5826 27.8027 63.4302 31.6441 63.4302 36.3735V36.392L63.4364 36.3858ZM75.9595 36.3426H63.4857L63.4734 36.0097C63.2946 31.5701 59.669 27.9445 55.2233 27.7657L54.8903 27.7534V11.7156H66.5317L75.9595 24.0415V36.355V36.3426ZM64.1516 35.6459H75.2628V24.2696L66.1864 12.4062H55.5932V27.0813C60.1314 27.4328 63.8063 31.1015 64.1578 35.6397L64.1516 35.6459Z" fill="#585B61"/>
</svg>